<mxfile host="Electron" modified="2025-01-18T14:43:27.028Z" agent="Mozilla/5.0 (X11; Linux x86_64) AppleWebKit/537.36 (KHTML, like Gecko) draw.io/24.6.4 Chrome/124.0.6367.207 Electron/30.0.6 Safari/537.36" etag="dQ4GQ_Wgqu4kyvGJhpb9" version="24.6.4" type="device">
  <diagram name="ページ1" id="U7pFd1WEHmhAA4g5N0mc">
    <mxGraphModel dx="1114" dy="893" grid="1" gridSize="10" guides="1" tooltips="1" connect="1" arrows="1" fold="1" page="1" pageScale="1" pageWidth="827" pageHeight="1169" math="0" shadow="0">
      <root>
        <mxCell id="0" />
        <mxCell id="1" parent="0" />
        <mxCell id="Pl00eCiiLzWOpuDl3vzT-1" value="&lt;font style=&quot;font-size: 20px;&quot;&gt;Logo Sample&lt;/font&gt;" style="ellipse;whiteSpace=wrap;html=1;aspect=fixed;" vertex="1" parent="1">
          <mxGeometry x="334" y="270" width="140" height="140" as="geometry" />
        </mxCell>
      </root>
    </mxGraphModel>
  </diagram>
</mxfile>
